# xmcd
#
# Track frame offsets: 
#        150
#        21399
#        39139
#        59535
#        80387
#        107456
#        123965
#        140850
#        158717
#        177927
#        195174
#        211839
#        226508
#        246310
#        265215
#        280856
#        316471
#        340600
#
# Disc length: 4791 seconds
#
# Revision: 0
# Processed by: cddbd v1.5.1PL0 Copyright (c) Steve Scherf et al.
# Submitted via: ExactAudioCopy v0.95a5
#
DISCID=ee12b512
DTITLE=Eric Clapton - The Best
DYEAR=2000
DGENRE=Blues
TTITLE0=Blue Eyes Blue
TTITLE1=Change The World
TTITLE2=Tears In Heaven
TTITLE3=Layla (unplugged)
TTITLE4=Floating Bridge
TTITLE5=Wonderful Tonight
TTITLE6=Nobody Knows You When (unplugged)
TTITLE7=Before You Accuse Me (take a look at yourself)
TTITLE8=Knocking'on Heaven Door
TTITLE9=Lay Down Sally
TTITLE10=Alberta (unplugged)
TTITLE11=Cocaine
TTITLE12=I Shot The Sheriff
TTITLE13=Sunshine Of Your Life
TTITLE14=Swing Low Sweet Shariot
TTITLE15=Old Love (unplugged)
TTITLE16=My Farther's Eyes
TTITLE17=(I) Get Lost
EXTD=
EXTT0=
EXTT1=
EXTT2=
EXTT3=
EXTT4=
EXTT5=
EXTT6=
EXTT7=
EXTT8=
EXTT9=
EXTT10=
EXTT11=
EXTT12=
EXTT13=
EXTT14=
EXTT15=
EXTT16=
EXTT17=
PLAYORDER=
